<svg width="347" height="101" viewBox="0 0 347 101" fill="none" xmlns="http://www.w3.org/2000/svg">
<rect x="173" width="174" height="100.8" rx="30" fill="#F4A712"/>
<path d="M190.256 73V67.7363L195.69 66.7109V29.5576L190.256 28.5322V23.2344H209.738V28.5322L204.304 29.5576V45.0752H226.076V29.5576L220.642 28.5322V23.2344H226.076H234.655H240.09V28.5322L234.655 29.5576V66.7109L240.09 67.7363V73H220.642V67.7363L226.076 66.7109V51.7744H204.304V66.7109L209.738 67.7363V73H190.256ZM260.598 73.7178C256.633 73.7178 253.534 72.4645 251.301 69.958C249.09 67.4287 247.985 63.5094 247.985 58.2002V42.3408L243.815 41.3154V36.0176H247.985H256.599V58.2686C256.599 61.4587 257.1 63.7031 258.103 65.002C259.128 66.278 260.7 66.916 262.819 66.916C264.688 66.916 266.271 66.5514 267.57 65.8223C268.892 65.0703 269.94 64.0107 270.715 62.6436V42.3408L266.066 41.3154V36.0176H270.715H279.328V66.7109L283.703 67.7363V73H271.706L271.125 67.9756C269.963 69.8213 268.482 71.2454 266.682 72.248C264.904 73.2279 262.876 73.7178 260.598 73.7178ZM308.586 73.7178C306.262 73.7178 304.257 73.262 302.57 72.3506C300.884 71.4391 299.471 70.1175 298.332 68.3857L297.648 73H290.231V26.0029L284.797 24.9775V19.6797H298.811V40.1533C299.927 38.5811 301.294 37.3848 302.912 36.5645C304.553 35.7441 306.455 35.334 308.62 35.334C311.651 35.334 314.214 36.1543 316.311 37.7949C318.43 39.4128 320.048 41.6914 321.164 44.6309C322.281 47.5703 322.839 51.0225 322.839 54.9873V55.7051C322.839 59.3053 322.281 62.4613 321.164 65.1729C320.048 67.8844 318.43 69.9922 316.311 71.4961C314.191 72.9772 311.617 73.7178 308.586 73.7178ZM306.125 66.916C308.951 66.916 311.001 65.9248 312.277 63.9424C313.576 61.9372 314.226 59.1914 314.226 55.7051V54.9873C314.226 52.3896 313.941 50.1338 313.371 48.2197C312.801 46.2829 311.924 44.7904 310.739 43.7422C309.554 42.6712 308.028 42.1357 306.159 42.1357C304.427 42.1357 302.946 42.5573 301.716 43.4004C300.508 44.2207 299.54 45.3372 298.811 46.75V62.541C299.562 63.931 300.542 65.0133 301.75 65.7881C302.98 66.54 304.439 66.916 306.125 66.916Z" fill="white"/>
<g filter="url(#filter0_d)">
<path d="M21.1836 73.7178C18.0163 73.7178 15.2021 73.1481 12.7412 72.0088C10.3031 70.8695 8.35482 69.1377 6.89648 66.8135C5.46094 64.4665 4.6748 61.527 4.53809 57.9951L4.60645 57.79H12.7754C12.9121 61.0941 13.6527 63.4525 14.9971 64.8652C16.3415 66.2552 18.1986 66.9502 20.5684 66.9502C22.1406 66.9502 23.485 66.6084 24.6016 65.9248C25.7181 65.2412 26.5726 64.2614 27.165 62.9854C27.7575 61.7093 28.0537 60.1826 28.0537 58.4053V29.5576L21.3887 28.5664V23.2344H42.1016V28.5322L36.6328 29.5576V58.4053C36.6328 61.5042 36.0404 64.2044 34.8555 66.5059C33.6706 68.8073 31.9274 70.5846 29.626 71.8379C27.3473 73.0911 24.5332 73.7178 21.1836 73.7178ZM63.1562 73.7178C59.6016 73.7178 56.5482 72.9202 53.9961 71.3252C51.444 69.7301 49.4844 67.5199 48.1172 64.6943C46.75 61.846 46.0664 58.5762 46.0664 54.8848V54.167C46.0664 50.4984 46.75 47.2513 48.1172 44.4258C49.4844 41.6003 51.444 39.3786 53.9961 37.7607C56.5482 36.1429 59.5788 35.334 63.0879 35.334C66.6426 35.334 69.696 36.1429 72.248 37.7607C74.8001 39.3558 76.7598 41.5661 78.127 44.3916C79.4941 47.2171 80.1777 50.4756 80.1777 54.167V54.8848C80.1777 58.5762 79.4941 61.846 78.127 64.6943C76.7598 67.5199 74.8001 69.7301 72.248 71.3252C69.7188 72.9202 66.6882 73.7178 63.1562 73.7178ZM63.1562 67.0869C65.0703 67.0869 66.6426 66.5742 67.873 65.5488C69.1263 64.5007 70.0605 63.0651 70.6758 61.2422C71.291 59.3965 71.5986 57.2773 71.5986 54.8848V54.167C71.5986 51.7972 71.291 49.7008 70.6758 47.8779C70.0605 46.055 69.1263 44.6195 67.873 43.5713C66.6198 42.5231 65.0247 41.999 63.0879 41.999C61.1966 41.999 59.6243 42.5231 58.3711 43.5713C57.1178 44.6195 56.1836 46.055 55.5684 47.8779C54.9759 49.7008 54.6797 51.7972 54.6797 54.167V54.8848C54.6797 57.2773 54.9759 59.3965 55.5684 61.2422C56.1836 63.0651 57.1178 64.5007 58.3711 65.5488C59.6471 66.5742 61.2422 67.0869 63.1562 67.0869ZM83.8008 73V67.7363L88.9619 66.7109V26.0029L83.4932 24.9775V19.6797H97.541V66.7109L102.36 67.7363V73H83.8008ZM107.419 73V67.9072L110.666 67.3262L110.563 67.1895L101.813 55.6367L106.975 49.5869L120.271 66.7793L125.192 67.7363V73H107.419ZM96.7207 62.6436L92.8926 57.1748L108.957 41.9307L109.06 41.7939L105.197 41.2812V36.0176H123.039V41.3154L118.288 42.4092L96.7207 62.6436ZM144.128 73.7178C140.642 73.7178 137.6 72.943 135.002 71.3936C132.427 69.8213 130.422 67.6566 128.986 64.8994C127.574 62.1423 126.867 58.9863 126.867 55.4316V53.9961C126.867 50.3958 127.562 47.1943 128.952 44.3916C130.365 41.5661 132.302 39.3558 134.763 37.7607C137.224 36.1429 140.026 35.334 143.171 35.334C146.521 35.334 149.323 36.0062 151.579 37.3506C153.858 38.695 155.578 40.609 156.74 43.0928C157.902 45.5537 158.483 48.516 158.483 51.9795V56.9014H135.788L135.72 57.0723C135.811 59.0091 136.21 60.7295 136.916 62.2334C137.645 63.7373 138.671 64.9222 139.992 65.7881C141.337 66.654 142.966 67.0869 144.88 67.0869C146.885 67.0869 148.708 66.8135 150.349 66.2666C151.989 65.7197 153.505 64.945 154.895 63.9424L157.595 69.3428C156.136 70.5732 154.279 71.61 152.023 72.4531C149.768 73.2962 147.136 73.7178 144.128 73.7178ZM135.925 50.8516H150.246V49.9629C150.246 48.3451 149.995 46.9323 149.494 45.7246C149.016 44.4941 148.252 43.5371 147.204 42.8535C146.179 42.1699 144.868 41.8281 143.273 41.8281C141.883 41.8281 140.664 42.2155 139.616 42.9902C138.568 43.765 137.725 44.8245 137.087 46.1689C136.472 47.4906 136.05 48.9945 135.822 50.6807L135.925 50.8516Z" fill="black"/>
</g>
<defs>
<filter id="filter0_d" x="0.538086" y="19.6797" width="161.945" height="62.0381" filterUnits="userSpaceOnUse" color-interpolation-filters="sRGB">
<feFlood flood-opacity="0" result="BackgroundImageFix"/>
<feColorMatrix in="SourceAlpha" type="matrix" values="0 0 0 0 0 0 0 0 0 0 0 0 0 0 0 0 0 0 127 0" result="hardAlpha"/>
<feOffset dy="4"/>
<feGaussianBlur stdDeviation="2"/>
<feComposite in2="hardAlpha" operator="out"/>
<feColorMatrix type="matrix" values="0 0 0 0 0 0 0 0 0 0 0 0 0 0 0 0 0 0 0.25 0"/>
<feBlend mode="normal" in2="BackgroundImageFix" result="effect1_dropShadow"/>
<feBlend mode="normal" in="SourceGraphic" in2="effect1_dropShadow" result="shape"/>
</filter>
</defs>
</svg>
