<svg id="visual" viewBox="0 0 900 300" width="900" height="300" xmlns="http://www.w3.org/2000/svg" xmlns:xlink="http://www.w3.org/1999/xlink" version="1.1"><rect x="0" y="0" width="900" height="300" fill="#fff"></rect><path d="M0 224L16.7 229.3C33.3 234.7 66.7 245.3 100 246.5C133.3 247.7 166.7 239.3 200 232.8C233.3 226.3 266.7 221.7 300 222.5C333.3 223.3 366.7 229.7 400 231.5C433.3 233.3 466.7 230.7 500 233.5C533.3 236.3 566.7 244.7 600 243C633.3 241.3 666.7 229.7 700 228.7C733.3 227.7 766.7 237.3 800 241.8C833.3 246.3 866.7 245.7 883.3 245.3L900 245L900 0L883.3 0C866.7 0 833.3 0 800 0C766.7 0 733.3 0 700 0C666.7 0 633.3 0 600 0C566.7 0 533.3 0 500 0C466.7 0 433.3 0 400 0C366.7 0 333.3 0 300 0C266.7 0 233.3 0 200 0C166.7 0 133.3 0 100 0C66.7 0 33.3 0 16.7 0L0 0Z" fill="#c62368"></path><path d="M0 186L16.7 185.8C33.3 185.7 66.7 185.3 100 187C133.3 188.7 166.7 192.3 200 192.2C233.3 192 266.7 188 300 186.3C333.3 184.7 366.7 185.3 400 190C433.3 194.7 466.7 203.3 500 207.5C533.3 211.7 566.7 211.3 600 206.5C633.3 201.7 666.7 192.3 700 189.3C733.3 186.3 766.7 189.7 800 191.5C833.3 193.3 866.7 193.7 883.3 193.8L900 194L900 0L883.3 0C866.7 0 833.3 0 800 0C766.7 0 733.3 0 700 0C666.7 0 633.3 0 600 0C566.7 0 533.3 0 500 0C466.7 0 433.3 0 400 0C366.7 0 333.3 0 300 0C266.7 0 233.3 0 200 0C166.7 0 133.3 0 100 0C66.7 0 33.3 0 16.7 0L0 0Z" fill="#e1435a"></path><path d="M0 132L16.7 136.2C33.3 140.3 66.7 148.7 100 147.3C133.3 146 166.7 135 200 132.3C233.3 129.7 266.7 135.3 300 136C333.3 136.7 366.7 132.3 400 135.5C433.3 138.7 466.7 149.3 500 152.2C533.3 155 566.7 150 600 149.7C633.3 149.3 666.7 153.7 700 154.8C733.3 156 766.7 154 800 149.3C833.3 144.7 866.7 137.3 883.3 133.7L900 130L900 0L883.3 0C866.7 0 833.3 0 800 0C766.7 0 733.3 0 700 0C666.7 0 633.3 0 600 0C566.7 0 533.3 0 500 0C466.7 0 433.3 0 400 0C366.7 0 333.3 0 300 0C266.7 0 233.3 0 200 0C166.7 0 133.3 0 100 0C66.7 0 33.3 0 16.7 0L0 0Z" fill="#f3664c"></path><path d="M0 103L16.7 99.5C33.3 96 66.7 89 100 86.8C133.3 84.7 166.7 87.3 200 87.3C233.3 87.3 266.7 84.7 300 85.8C333.3 87 366.7 92 400 95.3C433.3 98.7 466.7 100.3 500 101.8C533.3 103.3 566.7 104.7 600 101.3C633.3 98 666.7 90 700 89.3C733.3 88.7 766.7 95.3 800 100C833.3 104.7 866.7 107.3 883.3 108.7L900 110L900 0L883.3 0C866.7 0 833.3 0 800 0C766.7 0 733.3 0 700 0C666.7 0 633.3 0 600 0C566.7 0 533.3 0 500 0C466.7 0 433.3 0 400 0C366.7 0 333.3 0 300 0C266.7 0 233.3 0 200 0C166.7 0 133.3 0 100 0C66.7 0 33.3 0 16.7 0L0 0Z" fill="#fc8a40"></path><path d="M0 38L16.7 41.2C33.3 44.3 66.7 50.7 100 53C133.3 55.3 166.7 53.7 200 53.2C233.3 52.7 266.7 53.3 300 54.8C333.3 56.3 366.7 58.7 400 54.8C433.3 51 466.7 41 500 36.3C533.3 31.7 566.7 32.3 600 34.5C633.3 36.7 666.7 40.3 700 44.3C733.3 48.3 766.7 52.7 800 52.5C833.3 52.3 866.7 47.7 883.3 45.3L900 43L900 0L883.3 0C866.7 0 833.3 0 800 0C766.7 0 733.3 0 700 0C666.7 0 633.3 0 600 0C566.7 0 533.3 0 500 0C466.7 0 433.3 0 400 0C366.7 0 333.3 0 300 0C266.7 0 233.3 0 200 0C166.7 0 133.3 0 100 0C66.7 0 33.3 0 16.7 0L0 0Z" fill="#fcaf3c"></path></svg>