<svg id="visual" viewBox="0 0 1000 200" width="1000" height="200" xmlns="http://www.w3.org/2000/svg" xmlns:xlink="http://www.w3.org/1999/xlink" version="1.1"><rect x="0" y="0" width="1000" height="200" fill="#fff"></rect><path d="M0 148L16.7 146.2C33.3 144.3 66.7 140.7 100 144C133.3 147.3 166.7 157.7 200 158.2C233.3 158.7 266.7 149.3 300 144.8C333.3 140.3 366.7 140.7 400 145.7C433.3 150.7 466.7 160.3 500 160.2C533.3 160 566.7 150 600 147.5C633.3 145 666.7 150 700 154C733.3 158 766.7 161 800 159.2C833.3 157.3 866.7 150.7 900 150.8C933.3 151 966.7 158 983.3 161.5L1000 165L1000 0L983.3 0C966.7 0 933.3 0 900 0C866.7 0 833.3 0 800 0C766.7 0 733.3 0 700 0C666.7 0 633.3 0 600 0C566.7 0 533.3 0 500 0C466.7 0 433.3 0 400 0C366.7 0 333.3 0 300 0C266.7 0 233.3 0 200 0C166.7 0 133.3 0 100 0C66.7 0 33.3 0 16.7 0L0 0Z" fill="#c62368"></path><path d="M0 129L16.7 125C33.3 121 66.7 113 100 114.7C133.3 116.3 166.7 127.7 200 131.2C233.3 134.7 266.7 130.3 300 127.3C333.3 124.3 366.7 122.7 400 123.3C433.3 124 466.7 127 500 126.5C533.3 126 566.7 122 600 119.3C633.3 116.7 666.7 115.3 700 117.2C733.3 119 766.7 124 800 124.8C833.3 125.7 866.7 122.3 900 123.3C933.3 124.3 966.7 129.7 983.3 132.3L1000 135L1000 0L983.3 0C966.7 0 933.3 0 900 0C866.7 0 833.3 0 800 0C766.7 0 733.3 0 700 0C666.7 0 633.3 0 600 0C566.7 0 533.3 0 500 0C466.7 0 433.3 0 400 0C366.7 0 333.3 0 300 0C266.7 0 233.3 0 200 0C166.7 0 133.3 0 100 0C66.7 0 33.3 0 16.7 0L0 0Z" fill="#e1435a"></path><path d="M0 90L16.7 89C33.3 88 66.7 86 100 88C133.3 90 166.7 96 200 99.7C233.3 103.3 266.7 104.7 300 101.8C333.3 99 366.7 92 400 88.5C433.3 85 466.7 85 500 85.8C533.3 86.7 566.7 88.3 600 87C633.3 85.7 666.7 81.3 700 79.5C733.3 77.7 766.7 78.3 800 80C833.3 81.7 866.7 84.3 900 86.8C933.3 89.3 966.7 91.7 983.3 92.8L1000 94L1000 0L983.3 0C966.7 0 933.3 0 900 0C866.7 0 833.3 0 800 0C766.7 0 733.3 0 700 0C666.7 0 633.3 0 600 0C566.7 0 533.3 0 500 0C466.7 0 433.3 0 400 0C366.7 0 333.3 0 300 0C266.7 0 233.3 0 200 0C166.7 0 133.3 0 100 0C66.7 0 33.3 0 16.7 0L0 0Z" fill="#f3664c"></path><path d="M0 56L16.7 57.7C33.3 59.3 66.7 62.7 100 64.2C133.3 65.7 166.7 65.3 200 62.8C233.3 60.3 266.7 55.7 300 55.2C333.3 54.7 366.7 58.3 400 62C433.3 65.7 466.7 69.3 500 68C533.3 66.7 566.7 60.3 600 58.3C633.3 56.3 666.7 58.7 700 57.8C733.3 57 766.7 53 800 50.8C833.3 48.7 866.7 48.3 900 50.7C933.3 53 966.7 58 983.3 60.5L1000 63L1000 0L983.3 0C966.7 0 933.3 0 900 0C866.7 0 833.3 0 800 0C766.7 0 733.3 0 700 0C666.7 0 633.3 0 600 0C566.7 0 533.3 0 500 0C466.7 0 433.3 0 400 0C366.7 0 333.3 0 300 0C266.7 0 233.3 0 200 0C166.7 0 133.3 0 100 0C66.7 0 33.3 0 16.7 0L0 0Z" fill="#fc8a40"></path><path d="M0 36L16.7 35.2C33.3 34.3 66.7 32.7 100 29.8C133.3 27 166.7 23 200 22.3C233.3 21.7 266.7 24.3 300 25.8C333.3 27.3 366.7 27.7 400 26.3C433.3 25 466.7 22 500 25C533.3 28 566.7 37 600 37.5C633.3 38 666.7 30 700 28.7C733.3 27.3 766.7 32.7 800 36.2C833.3 39.7 866.7 41.3 900 41.8C933.3 42.3 966.7 41.7 983.3 41.3L1000 41L1000 0L983.3 0C966.7 0 933.3 0 900 0C866.7 0 833.3 0 800 0C766.7 0 733.3 0 700 0C666.7 0 633.3 0 600 0C566.7 0 533.3 0 500 0C466.7 0 433.3 0 400 0C366.7 0 333.3 0 300 0C266.7 0 233.3 0 200 0C166.7 0 133.3 0 100 0C66.7 0 33.3 0 16.7 0L0 0Z" fill="#fcaf3c"></path></svg>